<?xml version="1.0" standalone="no"?>
<!DOCTYPE svg PUBLIC "-//W3C//DTD SVG 20010904//EN"
 "http://www.w3.org/TR/2001/REC-SVG-20010904/DTD/svg10.dtd">
<svg version="1.0" xmlns="http://www.w3.org/2000/svg"
 width="150.000000pt" height="90.000000pt" viewBox="0 0 300.000000 206.000000"
 preserveAspectRatio="xMidYMid meet">
<metadata>
Created by potrace 1.10, written by Peter Selinger 2001-2011
</metadata>
<g transform="translate(0.000000,206.000000) scale(0.100000,-0.100000)"
fill="#000000" stroke="none">
<path d="M1315 1841 c-96 -58 -121 -157 -59 -238 46 -60 97 -72 209 -48 25 6
70 -14 280 -121 138 -70 259 -133 270 -140 18 -13 16 -14 -20 -14 -22 0 -240
-1 -485 -3 l-445 -2 -55 -27 c-80 -39 -139 -99 -179 -183 -20 -41 -24 -66 -23
-133 0 -73 4 -92 31 -147 37 -75 101 -137 178 -172 l55 -26 525 2 c367 1 532
5 547 13 39 20 46 50 22 84 -14 18 -34 19 -538 24 -410 4 -529 8 -553 19 -28
12 -28 14 -10 21 21 8 83 9 685 10 222 1 392 5 400 10 10 6 -203 10 -577 10
-325 0 -600 3 -610 7 -36 13 39 -56 85 -78 45 -20 57 -21 575 -22 493 -2 531
-3 541 -20 8 -12 8 -22 0 -35 -10 -16 -48 -17 -550 -17 l-539 0 -52 24 c-62
28 -136 103 -165 169 -27 60 -29 158 -5 229 24 69 93 145 165 180 l57 28 510
5 c448 4 510 7 513 20 2 11 -85 61 -309 177 l-312 161 -31 -19 c-122 -75 -253
80 -160 190 75 90 224 39 224 -77 0 -28 11 -35 308 -186 169 -87 317 -169 330
-182 31 -35 29 -86 -5 -124 l-28 -30 -509 -5 c-550 -6 -540 -5 -615 -63 l-36
-27 605 -5 c529 -4 605 -7 605 -20 0 -13 -76 -15 -615 -17 l-615 -2 -12 -28
c-7 -15 -12 -37 -13 -48 0 -20 7 -20 627 -20 552 0 628 -2 628 -15 0 -13 -76
-15 -628 -15 -620 0 -627 0 -627 -20 1 -11 6 -33 13 -48 l12 -28 612 1 c574 0
612 -1 622 -17 6 -10 11 -13 11 -7 0 6 -8 18 -17 26 -16 14 -96 17 -612 22
-327 3 -596 8 -599 11 -3 3 0 11 6 17 9 9 165 13 594 15 597 4 628 6 628 43 0
37 -31 39 -629 44 -555 4 -628 8 -589 32 7 4 272 10 588 11 316 2 585 5 597 8
27 6 40 42 22 60 -11 11 -125 15 -559 19 -300 2 -546 5 -548 5 -2 1 -1 5 2 10
11 17 77 20 556 27 516 7 523 8 554 57 34 53 17 143 -34 175 -29 18 -121 67
-215 115 -44 23 -82 44 -85 47 -3 3 -68 37 -145 75 l-140 71 -18 49 c-23 63
-57 99 -106 114 -54 16 -81 14 -116 -8z"/>
<path d="M1440 512 c-14 -2 -33 -11 -42 -19 -16 -15 -20 -15 -36 0 -11 10 -36
17 -61 17 -83 0 -125 -78 -91 -170 7 -17 6 -37 -4 -64 -15 -45 -7 -83 24 -111
26 -24 91 -30 125 -12 25 13 31 12 55 -1 25 -15 30 -14 55 2 25 17 28 17 46 0
18 -16 22 -16 52 -3 27 13 36 13 57 2 43 -22 88 -16 120 16 37 37 48 77 28
110 -11 21 -21 26 -51 25 -32 -1 -37 2 -37 21 0 19 5 22 37 21 68 -2 83 67 27
133 -20 25 -34 31 -64 31 -21 0 -52 -8 -69 -17 -27 -16 -33 -16 -53 -4 -27 17
-83 28 -118 23z m-81 -58 c12 -15 21 -40 21 -55 0 -24 -4 -29 -25 -29 -21 0
-25 5 -25 29 0 32 -16 43 -42 29 -30 -15 -21 -37 37 -93 46 -44 55 -58 55 -87
0 -63 -63 -98 -120 -68 -19 10 -44 76 -34 92 10 17 44 8 44 -11 0 -26 27 -52
45 -45 29 12 15 49 -35 95 -46 42 -50 49 -50 92 0 36 5 49 22 61 35 25 83 20
107 -10z m183 9 c21 -19 26 -111 6 -131 -9 -9 -9 -15 0 -24 7 -7 12 -39 12
-76 0 -60 -1 -63 -22 -60 -20 3 -24 10 -28 63 -4 53 -8 60 -27 63 -22 3 -23 0
-23 -62 0 -64 -1 -66 -25 -66 l-25 0 0 155 0 155 57 0 c38 0 62 -5 75 -17z
m182 -2 c9 -10 20 -35 23 -55 5 -34 4 -36 -21 -36 -21 0 -26 5 -26 24 0 33
-25 53 -45 36 -11 -9 -15 -35 -15 -105 0 -70 4 -96 15 -105 20 -17 45 3 45 36
0 27 12 37 35 28 21 -9 14 -67 -11 -95 -19 -21 -64 -25 -94 -9 -52 28 -54 259
-2 289 28 17 77 13 96 -8z"/>
<path d="M1460 391 c0 -46 1 -49 23 -43 27 6 37 20 37 49 0 21 -25 43 -49 43
-6 0 -11 -21 -11 -49z"/>
</g>
</svg>
